<?xml version="1.0" encoding="UTF-8" standalone="no"?>
<!-- Generator: Adobe Illustrator 18.1.1, SVG Export Plug-In . SVG Version: 6.00 Build 0)  -->

<svg
   xmlns:dc="http://purl.org/dc/elements/1.1/"
   xmlns:cc="http://creativecommons.org/ns#"
   xmlns:rdf="http://www.w3.org/1999/02/22-rdf-syntax-ns#"
   xmlns:svg="http://www.w3.org/2000/svg"
   xmlns="http://www.w3.org/2000/svg"
   xmlns:sodipodi="http://sodipodi.sourceforge.net/DTD/sodipodi-0.dtd"
   xmlns:inkscape="http://www.inkscape.org/namespaces/inkscape"
   version="1.1"
   id="Capa_1"
   x="0px"
   y="0px"
   viewBox="0 0 475.624 475.624"
   style="enable-background:new 0 0 475.624 475.624;"
   xml:space="preserve"
   inkscape:version="0.91 r13725"
   sodipodi:docname="recipes.svg"><metadata
     id="metadata49"><rdf:RDF><cc:Work
         rdf:about=""><dc:format>image/svg+xml</dc:format><dc:type
           rdf:resource="http://purl.org/dc/dcmitype/StillImage" /><dc:title></dc:title></cc:Work></rdf:RDF></metadata><defs
     id="defs47" /><sodipodi:namedview
     pagecolor="#ffffff"
     bordercolor="#666666"
     borderopacity="1"
     objecttolerance="10"
     gridtolerance="10"
     guidetolerance="10"
     inkscape:pageopacity="0"
     inkscape:pageshadow="2"
     inkscape:window-width="1659"
     inkscape:window-height="924"
     id="namedview45"
     showgrid="false"
     inkscape:zoom="1.5132085"
     inkscape:cx="299.53624"
     inkscape:cy="369.98149"
     inkscape:window-x="0"
     inkscape:window-y="0"
     inkscape:window-maximized="0"
     inkscape:current-layer="g5" /><g
     id="g3"><g
       id="g5"><path
         style="fill:#744c20;fill-opacity:1"
         d="m 133.95851,157.6528 c 0.0963,2.19202 0.11554,4.81276 -2.04923,6.0823 -1.28103,0.75255 -2.93327,0.7898 -4.57307,0.55911 l 0,-16.83264 -113.18442,0 0,16.88393 c -1.493152,0.16307 -2.971786,0.0745 -4.137273,-0.6104 -2.1650698,-1.26954 -2.1458127,-3.89028 -2.0492319,-6.0823 0.1976056,-4.50756 -7.02699511,-4.48893 -7.22460066,0 -0.19760553,4.50756 1.06683286,9.87915 5.62775806,12.11559 2.4876968,1.22053 5.1294485,1.57703 7.7857175,1.44205 l 0,22.20193 c -0.0024,14.50563 12.495957,26.26243 27.913041,26.26243 l 58.157349,0 c 15.41472,0 27.11137,-11.7568 27.11137,-26.25985 l 0,-22.2303 c 2.80321,0.20032 5.59665,-0.1281 8.21914,-1.41626 4.56122,-2.23874 5.82536,-7.60803 5.62776,-12.11559 -0.19731,-4.48893 -7.42191,-4.50756 -7.22431,0 z"
         id="path7"
         inkscape:connector-curvature="0"
         inkscape:export-filename="/Users/bjimenez/Downloads/text4177.png"
         inkscape:export-xdpi="82.629997"
         inkscape:export-ydpi="82.629997" /><path
         style="fill:#744c20;fill-opacity:1"
         d="m 14.523907,145.61462 112.490153,-12.10535 -1.12948,-9.82085 -47.425452,5.10357 c -0.617343,-1.51109 -1.612669,-2.81485 -2.901698,-3.78252 l -0.825695,-7.17944 -12.764137,1.37359 0.825695,7.17944 c -1.037657,1.21804 -1.715076,2.70181 -1.971346,4.30692 l -47.427519,5.10379 1.129479,9.82085 z"
         id="path9"
         inkscape:connector-curvature="0"
         inkscape:export-filename="/Users/bjimenez/Downloads/text4177.png"
         inkscape:export-xdpi="82.629997"
         inkscape:export-ydpi="82.629997" /><path
         style="fill:#349cdd;fill-opacity:1"
         d="m 27.371511,89.041266 c -4.197414,4.216398 -6.042226,9.385375 -4.175787,15.118044 1.899916,5.83527 7.771201,12.49989 3.732582,18.53777 -2.506954,3.75272 3.128211,8.13218 5.659161,4.3445 3.364331,-5.034 3.665332,-9.75105 1.675944,-15.37196 -2.396152,-6.76721 -7.561744,-11.933898 -1.235404,-18.286149 3.239308,-3.245191 -2.451258,-7.559311 -5.656496,-4.342205 z"
         id="path11"
         inkscape:connector-curvature="0"
         inkscape:export-filename="/Users/bjimenez/Downloads/text4177.png"
         inkscape:export-xdpi="82.629997"
         inkscape:export-ydpi="82.629997" /><path
         style="fill:#349cdd;fill-opacity:1"
         d="m 45.577291,85.269635 c -3.706215,4.596111 -4.729794,9.303987 -3.544753,14.999405 1.502631,7.21427 5.960162,13.6995 1.3388,20.80917 -2.453923,3.77593 3.178871,8.15997 5.659161,4.3445 3.407585,-5.24349 4.414277,-10.21702 3.106585,-16.30849 -1.449601,-6.76005 -6.003713,-13.173055 -0.903002,-19.499801 2.868095,-3.55498 -2.788697,-7.90177 -5.656791,-4.344784 z"
         id="path13"
         inkscape:connector-curvature="0"
         inkscape:export-filename="/Users/bjimenez/Downloads/text4177.png"
         inkscape:export-xdpi="82.629997"
         inkscape:export-ydpi="82.629997" /><text
         xml:space="preserve"
         style="font-style:normal;font-weight:normal;font-size:81.18821716px;line-height:108.00000429%;font-family:sans-serif;letter-spacing:0px;word-spacing:0px;fill:#000000;fill-opacity:1;stroke:none;stroke-width:1px;stroke-linecap:butt;stroke-linejoin:miter;stroke-opacity:1"
         x="163.96587"
         y="143.10069"
         id="text4177"
         sodipodi:linespacing="108%"
         transform="scale(0.96433217,1.0369871)"
         inkscape:export-filename="/Users/bjimenez/Downloads/text4177.png"
         inkscape:export-xdpi="82.629997"
         inkscape:export-ydpi="82.629997"><tspan
           sodipodi:role="line"
           id="tspan4179"
           x="163.96587"
           y="143.10069"
           style="font-style:normal;font-variant:normal;font-weight:bold;font-stretch:normal;font-size:63.14639282px;line-height:108.00000429%;font-family:sans-serif;-inkscape-font-specification:'sans-serif Bold'"><tspan
   style="fill:#349cdd;fill-opacity:1"
   id="tspan4183">Bio</tspan>informatics</tspan><tspan
           sodipodi:role="line"
           x="163.96587"
           y="211.2988"
           id="tspan4181"
           style="font-style:normal;font-variant:normal;font-weight:bold;font-stretch:normal;font-size:63.14639282px;line-height:108.00000429%;font-family:sans-serif;-inkscape-font-specification:'sans-serif Bold'">Recipes</tspan></text>
</g></g><g
     id="g15" /><g
     id="g17" /><g
     id="g19" /><g
     id="g21" /><g
     id="g23" /><g
     id="g25" /><g
     id="g27" /><g
     id="g29" /><g
     id="g31" /><g
     id="g33" /><g
     id="g35" /><g
     id="g37" /><g
     id="g39" /><g
     id="g41" /><g
     id="g43" /></svg>